<svg width="729" height="424" viewBox="0 0 729 424" fill="none" xmlns="http://www.w3.org/2000/svg">
<mask id="path-1-outside-1_139_1114" maskUnits="userSpaceOnUse" x="0" y="0" width="729" height="424" fill="black">
<rect fill="white" width="729" height="424"/>
<path fill-rule="evenodd" clip-rule="evenodd" d="M540.711 9.15899C538.795 12.0998 534.967 17.9321 532.202 22.1203C529.438 26.3095 522.987 36.2339 517.868 44.1748C511.454 54.1235 507.759 58.9654 505.987 59.7424C504.572 60.3622 493.544 64.8675 481.481 69.7541C455.689 80.2004 437.683 87.5321 430.957 90.3246C425.709 92.5031 424.724 93.7921 423.514 100.066C423.076 102.34 421.974 107.786 421.068 112.168C420.161 116.549 419.689 120.418 420.017 120.767C420.346 121.115 427.729 119.111 436.425 116.314C445.122 113.517 454.704 110.473 457.72 109.551C472.656 104.982 491.726 98.9483 493.279 98.2994C494.931 97.6098 494.991 97.9454 494.406 104.616C493.783 111.732 492.652 115.356 491.054 115.356C490.574 115.356 484.728 117.494 478.063 120.107C471.398 122.72 455.458 128.853 442.64 133.735C429.823 138.618 418.433 143.007 417.329 143.489C415.349 144.353 415.097 145.165 413.962 154.378C413.247 160.18 409.933 160.931 449.038 146.419C459.342 142.595 469.623 138.821 471.885 138.031C474.147 137.243 476.82 136.218 477.825 135.756C480.326 134.605 485.694 132.815 486.644 132.815C487.69 132.815 487.637 142.757 486.574 145.723C485.849 147.749 480.197 150.426 447.048 164.444L408.369 180.801L398.773 190.477C393.496 195.799 383.139 206.39 375.76 214.011C368.379 221.633 361.799 227.856 361.137 227.841C359.809 227.811 357.295 225.368 330.803 198.368C320.813 188.187 311.355 179.336 309.784 178.699C297.302 173.639 255.834 156.652 242.195 151.013C234.372 147.777 233.876 147.125 232.82 138.672C232.437 135.61 232.552 133.785 233.129 133.785C233.635 133.785 239.959 136.008 247.183 138.726C254.407 141.443 261.346 144.02 262.603 144.454C263.859 144.888 270.851 147.512 278.139 150.288C298.779 158.148 305.447 160.412 306.055 159.767C306.363 159.44 306.091 155.863 305.452 151.817L304.286 144.463L290.528 138.715C282.96 135.554 266.898 128.95 254.835 124.038C242.771 119.126 231.85 114.541 230.565 113.849C228.829 112.914 227.675 110.83 226.07 105.73C224.883 101.957 224.16 98.6059 224.464 98.2839C224.767 97.9609 227.612 98.5865 230.786 99.6729C233.96 100.759 243.342 103.893 251.636 106.637C259.93 109.382 268.977 112.426 271.742 113.401C285.058 118.103 299.217 122.406 299.696 121.898C299.989 121.587 299.76 117.478 299.186 112.767C298.612 108.056 297.903 101.695 297.61 98.6321C297.318 95.5691 296.621 92.6631 296.062 92.1762C295.503 91.6893 290.317 89.5428 284.536 87.408C270.49 82.2188 245.979 73.017 229.702 66.8229C222.414 64.0489 215.55 61.5668 214.45 61.3069C211.693 60.657 211.248 60.0489 198.297 39.2155C181.885 12.8137 176.569 4.59444 176.176 5.01152C175.986 5.21327 177.03 14.0824 178.496 24.7217C181.617 47.3747 186.456 82.3022 187.626 90.6224C188.076 93.8232 189.738 105.826 191.319 117.296C192.9 128.765 194.545 140.55 194.974 143.484C196.116 151.281 199.557 175.942 200.522 183.252C200.98 186.719 201.773 192.393 202.285 195.861C202.795 199.328 203.62 205.221 204.116 208.955C204.612 212.689 205.333 217.922 205.718 220.584L206.418 225.423L226.255 241.922C237.165 250.997 247.199 259.295 248.551 260.362C249.903 261.429 257.533 267.783 265.507 274.482L280.005 286.664L295.538 309.885C304.082 322.657 314.171 337.69 317.96 343.292C321.749 348.893 330.8 362.424 338.075 373.36C358.978 404.785 359.5 405.521 360.597 405.133C361.596 404.779 372.739 388.686 392.671 358.811C411.849 330.064 437.5 292.296 439.354 290.073C440.408 288.81 444.56 285.109 448.581 281.848C452.602 278.588 456.509 275.377 457.263 274.713C458.017 274.049 466.036 267.329 475.084 259.78C512.427 228.621 511.183 229.754 511.183 226.916C511.183 225.465 511.548 223.013 511.996 221.466C512.443 219.92 513.308 214.944 513.918 210.41C514.528 205.876 516.175 194.745 517.579 185.677C518.982 176.608 521.016 163.077 522.098 155.608C523.181 148.14 525.296 133.954 526.798 124.085C530.733 98.2248 532.806 84.5321 534.915 70.4961C535.936 63.6949 537.579 52.783 538.565 46.2476C539.551 39.7121 541.214 28.4734 542.262 21.2716C543.31 14.0698 544.362 7.19583 544.599 5.99505C545.251 2.70889 544.53 3.29472 540.711 9.15899ZM299.188 7.04064C299.159 8.80788 301.631 24.4879 304.261 39.2155C305.023 43.4832 306.651 53.0857 307.877 60.5542C309.105 68.0227 310.747 77.8434 311.528 82.3779C312.861 90.1209 313.484 93.8329 317.019 115.113C317.794 119.782 319.207 128.183 320.158 133.785C321.109 139.386 322.551 147.892 323.361 152.689L324.834 161.409L332.33 169.663C336.454 174.202 344.422 182.664 350.039 188.466L360.251 199.016L364.204 195.165C366.378 193.046 372.849 186.772 378.583 181.221C394.087 166.209 395.721 164.497 396.34 162.615C396.651 161.669 397.976 154.467 399.282 146.611C402.701 126.06 405.89 107.248 407.376 98.8669C409.057 89.3905 411.253 76.6872 413.454 63.7065C414.428 57.9722 416.062 48.3698 417.086 42.3678C423.012 7.64298 423.234 6.25305 422.934 5.89321C422.652 5.5547 407.183 27.4928 389.177 53.7685C384.151 61.1032 379.495 67.7036 378.831 68.4369C377.173 70.2643 346.816 70.371 344.709 68.5562C343.476 67.4941 324.68 41.3998 319.721 33.8673C318.194 31.5462 304.047 11.7759 300.33 6.76809C299.345 5.44024 299.213 5.47225 299.188 7.04064ZM364.5 96.1995C366.246 98.9997 370.376 104.783 373.678 109.051C383.227 121.396 387.075 132.129 385.118 140.968C384.656 143.052 382.354 147.746 380.001 151.401L375.723 158.046L377.315 161.606C379.214 165.853 378.469 169.032 374.919 171.837C372.794 173.516 372.137 173.588 368.738 172.507C365.644 171.523 364.512 171.539 362.663 172.589C360.806 173.643 359.989 173.653 358.207 172.641C356.739 171.806 354.522 171.62 351.433 172.071C348.621 172.481 346.116 172.33 344.972 171.68C342.388 170.212 341.574 164.86 343.374 161.166C344.755 158.332 344.685 158.019 341.053 150.7C336.518 141.566 335.523 133.917 337.892 126.401C339.529 121.206 347.465 109.337 350.897 106.95C352.102 106.113 353.488 103.765 354.023 101.658C354.824 98.4973 359.679 91.1073 360.953 91.1073C361.158 91.1073 362.755 93.3993 364.5 96.1995ZM358.756 100.019C357.253 101.614 357.356 110.352 358.932 115.094C359.639 117.218 361.284 121.433 362.588 124.46C365.13 130.359 365.752 138.161 363.96 141.712C362.423 144.761 364.069 145.753 368.54 144.475C371.657 143.585 372.872 143.661 375.194 144.89C378.765 146.781 378.379 146.89 380.015 143.533C382.34 138.761 381.81 130.687 378.754 124.3C376.334 119.242 362.232 99.701 360.567 99.0977C360.18 98.9571 359.365 99.3722 358.756 100.019ZM348.493 116.083C341.369 124.66 338.877 133.327 341.35 140.926L342.569 144.672L349.601 144.934L356.634 145.195L358.969 141.451C361.973 136.633 361.911 133.538 358.662 125.917C357.209 122.509 355.499 117.866 354.862 115.598C354.225 113.331 353.392 111.476 353.012 111.476C352.631 111.476 350.598 113.549 348.493 116.083ZM346.719 149.741C345.761 150.965 345.821 151.67 347.051 153.664C348.525 156.051 348.761 156.093 360.43 156.093C372.131 156.093 372.324 156.058 373.324 153.731C374.944 149.955 373.714 147.996 370.203 148.765C368.575 149.121 366.216 149.353 364.959 149.28C361.493 149.08 359.291 149.096 356.277 149.347C354.769 149.473 352.264 149.277 350.711 148.911C348.691 148.437 347.554 148.673 346.719 149.741ZM351.708 160.672C348.11 161.252 346.681 162.604 346.681 165.426C346.681 167.629 346.98 167.739 353.307 167.886C356.951 167.969 360.55 167.963 361.304 167.869C362.902 167.672 367.004 167.737 370.9 168.019C373.227 168.188 373.682 167.838 373.916 165.709C374.067 164.33 373.568 162.653 372.807 161.983C371.388 160.734 356.908 159.834 351.708 160.672ZM707.656 174.37C705.905 175.353 703.649 177.752 702.644 179.702L700.816 183.247L672.319 183.249L643.822 183.252L642.08 185.919C641.121 187.386 636.11 196.443 630.942 206.045C625.773 215.648 620.409 225.468 619.019 227.869C617.63 230.27 615.345 234.416 613.941 237.083C610.476 243.67 606.346 251.319 605.302 253.087C604.286 254.807 596.252 269.559 593.68 274.426C590.612 280.232 571.565 315.199 566.469 324.378C563.804 329.179 560.72 334.963 559.616 337.23C558.511 339.497 557.546 341.442 557.471 341.553C557.396 341.664 546.676 341.991 533.648 342.28C515.872 342.676 509.868 343.11 509.582 344.019C509.283 344.975 516.457 345.232 543.438 345.232C569.729 345.232 577.886 344.95 578.589 344.019C579.092 343.353 581.88 338.442 584.783 333.108C587.688 327.773 595.412 313.587 601.95 301.584C608.488 289.581 619.881 268.631 627.268 255.027C634.654 241.424 645.34 221.783 651.014 211.38C656.688 200.977 661.917 191.265 662.634 189.799L663.937 187.131H682.494H701.051L702.194 190.061C703.702 193.923 707.896 197.576 711.691 198.331C715.26 199.042 721.325 196.199 723.603 192.748C725.521 189.842 725.45 181.873 723.475 178.324C720.45 172.888 713.425 171.131 707.656 174.37ZM234.729 190.578C239.488 192.717 267.39 204.681 273.113 207.034C276.128 208.273 291.756 215.03 307.841 222.047C323.925 229.065 338.834 235.523 340.969 236.397C343.28 237.342 344.853 238.611 344.853 239.527C344.853 240.374 343.039 244.972 340.821 249.745C338.604 254.517 333.877 264.86 330.317 272.729C326.756 280.598 323.463 287.035 322.997 287.035C322.532 287.035 320.362 285.18 318.175 282.913C315.989 280.646 300.858 265.042 284.552 248.238C234.266 196.417 226.961 188.771 226.961 187.959C226.961 187.218 228.155 187.62 234.729 190.578ZM476.878 205.343C467.812 214.798 453.418 229.69 444.891 238.436C436.366 247.182 422.35 261.695 413.748 270.687C405.145 279.678 397.629 287.035 397.045 287.035C396.461 287.035 393.581 281.689 390.645 275.154C387.709 268.618 382.99 258.166 380.159 251.925C377.329 245.686 375.013 240.012 375.015 239.316C375.016 238.594 381.174 235.421 389.409 231.9C397.324 228.516 407.09 224.299 411.111 222.528C418.388 219.326 470.704 196.718 483.766 191.132C487.536 189.52 491.237 188.191 491.991 188.177C492.745 188.163 485.945 195.889 476.878 205.343ZM38.698 258.41C38.698 259.692 42.7411 259.877 70.6414 259.877H102.586L104.064 262.059C104.876 263.26 114.132 280.609 124.633 300.615C135.132 320.62 144.758 338.843 146.022 341.11L148.321 345.232H179.492C204.022 345.232 210.582 344.974 210.282 344.019C209.992 343.091 203.145 342.747 181.048 342.551L152.196 342.295L149.478 337.701C146.563 332.773 135.779 313.019 117.321 278.791L105.813 257.452L72.2554 257.198C42.8087 256.974 38.698 257.123 38.698 258.41ZM198.754 290.761C204.569 297.284 207.913 302.216 212.729 311.372C224.277 333.327 229.15 339.65 237.471 343.473C239.52 344.415 245.747 344.672 262.146 344.491C274.209 344.357 285.169 344.008 286.499 343.715L288.919 343.181L283.297 335.235C280.204 330.864 274.181 320.959 269.91 313.224C259.809 294.928 254.441 288.948 245.61 286.161C237.96 283.746 221.921 282.209 204.238 282.195L191.111 282.186L198.754 290.761ZM493.362 283.308C487.833 283.776 480.75 285.056 477.623 286.153C471.196 288.405 464.122 294.482 460.733 300.66C452.16 316.291 442.026 333.244 438.554 337.769C435.046 342.339 434.658 343.241 436.015 343.689C436.894 343.979 448.101 344.336 460.918 344.482C483.389 344.737 484.356 344.671 487.958 342.626C494.63 338.836 500.345 331.523 507.523 317.588C514.136 304.752 515.122 302.928 516.956 300.13C518.005 298.529 519.088 296.987 519.364 296.702C519.639 296.417 522.733 293.034 526.237 289.185L532.61 282.186L518.012 282.321C509.984 282.396 498.891 282.839 493.362 283.308ZM245.696 357.854C238.971 358.632 235.179 360.646 230.274 366.045C226.664 370.019 218.493 383.811 212.439 396.154C210.869 399.354 206.058 406.011 201.748 410.945L193.912 419.917L209.293 419.892C242.959 419.838 254.176 416.84 262.261 405.735C264.855 402.171 275.397 384.277 275.397 383.436C275.397 382.47 285.431 366.661 288.068 363.473C289.947 361.203 290.635 359.699 289.989 359.276C287.89 357.899 254.55 356.829 245.696 357.854ZM448.427 357.711C440.3 358.05 433.414 358.579 433.123 358.888C432.832 359.197 434.753 362.567 437.389 366.376C440.026 370.185 445.855 379.754 450.343 387.638C459.957 404.531 462.774 408.554 467.564 412.237C472.334 415.905 478.565 417.699 490.632 418.882C502.096 420.005 528.52 420.421 528.594 419.478C528.622 419.133 525.435 415.2 521.512 410.739C516.156 404.645 512.789 399.542 507.984 390.233C497.001 368.956 491.326 361.599 483.843 358.939C479.608 357.435 466.217 356.97 448.427 357.711ZM105.695 364.865C105.288 365.528 101.199 373.494 96.6089 382.567L88.2623 399.063L58.0991 399.319L27.9359 399.575L27.3849 397.245C27.0814 395.964 25.3761 393.557 23.5949 391.897C20.898 389.384 19.5948 388.879 15.8058 388.879C11.9208 388.879 10.7666 389.353 7.92799 392.114C5.01997 394.942 4.54841 396.039 4.17371 400.838C3.75515 406.189 3.83648 406.424 7.40525 410.212C10.7163 413.727 11.5096 414.098 15.7117 414.098C19.6067 414.098 20.8797 413.611 23.5949 411.08C25.3761 409.42 27.0805 407.019 27.3812 405.745C27.7641 404.126 28.6561 403.358 30.3431 403.196C31.671 403.068 61.0976 402.96 95.7352 402.954L158.712 402.943L160.236 400.033C161.649 397.337 164.741 391.26 172.819 375.3C174.574 371.832 176.413 368.46 176.905 367.805C177.536 366.964 182.523 366.537 193.851 366.35C205.699 366.154 210.002 365.768 210.283 364.873C210.838 363.104 106.781 363.096 105.695 364.865ZM510.497 364.873C510.795 365.823 525.65 366.19 579.04 366.57C616.528 366.837 647.397 367.274 647.636 367.54C647.875 367.807 650.645 372.39 653.792 377.725C656.938 383.059 661.315 390.371 663.517 393.971L667.522 400.518H685.715C698.076 400.518 704.108 400.173 704.535 399.44C705.855 397.173 702.095 396.642 685.39 396.734C674.979 396.791 667.91 396.45 667.569 395.875C667.257 395.352 662.684 387.89 657.406 379.293L647.81 363.666L578.964 363.663C524.292 363.661 510.195 363.91 510.497 364.873ZM303.287 377.223C298.807 382 295.326 386.097 295.551 386.327C296.59 387.392 333.208 404.473 333.586 404.07C333.941 403.694 314.075 371.574 312.053 369.252C311.711 368.86 307.767 372.447 303.287 377.223ZM398.707 384.535C388.73 400.297 386.786 403.639 387.287 404.169C387.453 404.346 393.91 401.463 401.635 397.763C409.36 394.063 417.839 390.061 420.478 388.868C423.118 387.675 425.276 386.395 425.276 386.022C425.276 385.002 410.097 369.48 409.1 369.48C408.624 369.48 403.947 376.255 398.707 384.535Z"/>
</mask>
<path fill-rule="evenodd" clip-rule="evenodd" d="M540.711 9.15899C538.795 12.0998 534.967 17.9321 532.202 22.1203C529.438 26.3095 522.987 36.2339 517.868 44.1748C511.454 54.1235 507.759 58.9654 505.987 59.7424C504.572 60.3622 493.544 64.8675 481.481 69.7541C455.689 80.2004 437.683 87.5321 430.957 90.3246C425.709 92.5031 424.724 93.7921 423.514 100.066C423.076 102.34 421.974 107.786 421.068 112.168C420.161 116.549 419.689 120.418 420.017 120.767C420.346 121.115 427.729 119.111 436.425 116.314C445.122 113.517 454.704 110.473 457.72 109.551C472.656 104.982 491.726 98.9483 493.279 98.2994C494.931 97.6098 494.991 97.9454 494.406 104.616C493.783 111.732 492.652 115.356 491.054 115.356C490.574 115.356 484.728 117.494 478.063 120.107C471.398 122.72 455.458 128.853 442.64 133.735C429.823 138.618 418.433 143.007 417.329 143.489C415.349 144.353 415.097 145.165 413.962 154.378C413.247 160.18 409.933 160.931 449.038 146.419C459.342 142.595 469.623 138.821 471.885 138.031C474.147 137.243 476.82 136.218 477.825 135.756C480.326 134.605 485.694 132.815 486.644 132.815C487.69 132.815 487.637 142.757 486.574 145.723C485.849 147.749 480.197 150.426 447.048 164.444L408.369 180.801L398.773 190.477C393.496 195.799 383.139 206.39 375.76 214.011C368.379 221.633 361.799 227.856 361.137 227.841C359.809 227.811 357.295 225.368 330.803 198.368C320.813 188.187 311.355 179.336 309.784 178.699C297.302 173.639 255.834 156.652 242.195 151.013C234.372 147.777 233.876 147.125 232.82 138.672C232.437 135.61 232.552 133.785 233.129 133.785C233.635 133.785 239.959 136.008 247.183 138.726C254.407 141.443 261.346 144.02 262.603 144.454C263.859 144.888 270.851 147.512 278.139 150.288C298.779 158.148 305.447 160.412 306.055 159.767C306.363 159.44 306.091 155.863 305.452 151.817L304.286 144.463L290.528 138.715C282.96 135.554 266.898 128.95 254.835 124.038C242.771 119.126 231.85 114.541 230.565 113.849C228.829 112.914 227.675 110.83 226.07 105.73C224.883 101.957 224.16 98.6059 224.464 98.2839C224.767 97.9609 227.612 98.5865 230.786 99.6729C233.96 100.759 243.342 103.893 251.636 106.637C259.93 109.382 268.977 112.426 271.742 113.401C285.058 118.103 299.217 122.406 299.696 121.898C299.989 121.587 299.76 117.478 299.186 112.767C298.612 108.056 297.903 101.695 297.61 98.6321C297.318 95.5691 296.621 92.6631 296.062 92.1762C295.503 91.6893 290.317 89.5428 284.536 87.408C270.49 82.2188 245.979 73.017 229.702 66.8229C222.414 64.0489 215.55 61.5668 214.45 61.3069C211.693 60.657 211.248 60.0489 198.297 39.2155C181.885 12.8137 176.569 4.59444 176.176 5.01152C175.986 5.21327 177.03 14.0824 178.496 24.7217C181.617 47.3747 186.456 82.3022 187.626 90.6224C188.076 93.8232 189.738 105.826 191.319 117.296C192.9 128.765 194.545 140.55 194.974 143.484C196.116 151.281 199.557 175.942 200.522 183.252C200.98 186.719 201.773 192.393 202.285 195.861C202.795 199.328 203.62 205.221 204.116 208.955C204.612 212.689 205.333 217.922 205.718 220.584L206.418 225.423L226.255 241.922C237.165 250.997 247.199 259.295 248.551 260.362C249.903 261.429 257.533 267.783 265.507 274.482L280.005 286.664L295.538 309.885C304.082 322.657 314.171 337.69 317.96 343.292C321.749 348.893 330.8 362.424 338.075 373.36C358.978 404.785 359.5 405.521 360.597 405.133C361.596 404.779 372.739 388.686 392.671 358.811C411.849 330.064 437.5 292.296 439.354 290.073C440.408 288.81 444.56 285.109 448.581 281.848C452.602 278.588 456.509 275.377 457.263 274.713C458.017 274.049 466.036 267.329 475.084 259.78C512.427 228.621 511.183 229.754 511.183 226.916C511.183 225.465 511.548 223.013 511.996 221.466C512.443 219.92 513.308 214.944 513.918 210.41C514.528 205.876 516.175 194.745 517.579 185.677C518.982 176.608 521.016 163.077 522.098 155.608C523.181 148.14 525.296 133.954 526.798 124.085C530.733 98.2248 532.806 84.5321 534.915 70.4961C535.936 63.6949 537.579 52.783 538.565 46.2476C539.551 39.7121 541.214 28.4734 542.262 21.2716C543.31 14.0698 544.362 7.19583 544.599 5.99505C545.251 2.70889 544.53 3.29472 540.711 9.15899ZM299.188 7.04064C299.159 8.80788 301.631 24.4879 304.261 39.2155C305.023 43.4832 306.651 53.0857 307.877 60.5542C309.105 68.0227 310.747 77.8434 311.528 82.3779C312.861 90.1209 313.484 93.8329 317.019 115.113C317.794 119.782 319.207 128.183 320.158 133.785C321.109 139.386 322.551 147.892 323.361 152.689L324.834 161.409L332.33 169.663C336.454 174.202 344.422 182.664 350.039 188.466L360.251 199.016L364.204 195.165C366.378 193.046 372.849 186.772 378.583 181.221C394.087 166.209 395.721 164.497 396.34 162.615C396.651 161.669 397.976 154.467 399.282 146.611C402.701 126.06 405.89 107.248 407.376 98.8669C409.057 89.3905 411.253 76.6872 413.454 63.7065C414.428 57.9722 416.062 48.3698 417.086 42.3678C423.012 7.64298 423.234 6.25305 422.934 5.89321C422.652 5.5547 407.183 27.4928 389.177 53.7685C384.151 61.1032 379.495 67.7036 378.831 68.4369C377.173 70.2643 346.816 70.371 344.709 68.5562C343.476 67.4941 324.68 41.3998 319.721 33.8673C318.194 31.5462 304.047 11.7759 300.33 6.76809C299.345 5.44024 299.213 5.47225 299.188 7.04064ZM364.5 96.1995C366.246 98.9997 370.376 104.783 373.678 109.051C383.227 121.396 387.075 132.129 385.118 140.968C384.656 143.052 382.354 147.746 380.001 151.401L375.723 158.046L377.315 161.606C379.214 165.853 378.469 169.032 374.919 171.837C372.794 173.516 372.137 173.588 368.738 172.507C365.644 171.523 364.512 171.539 362.663 172.589C360.806 173.643 359.989 173.653 358.207 172.641C356.739 171.806 354.522 171.62 351.433 172.071C348.621 172.481 346.116 172.33 344.972 171.68C342.388 170.212 341.574 164.86 343.374 161.166C344.755 158.332 344.685 158.019 341.053 150.7C336.518 141.566 335.523 133.917 337.892 126.401C339.529 121.206 347.465 109.337 350.897 106.95C352.102 106.113 353.488 103.765 354.023 101.658C354.824 98.4973 359.679 91.1073 360.953 91.1073C361.158 91.1073 362.755 93.3993 364.5 96.1995ZM358.756 100.019C357.253 101.614 357.356 110.352 358.932 115.094C359.639 117.218 361.284 121.433 362.588 124.46C365.13 130.359 365.752 138.161 363.96 141.712C362.423 144.761 364.069 145.753 368.54 144.475C371.657 143.585 372.872 143.661 375.194 144.89C378.765 146.781 378.379 146.89 380.015 143.533C382.34 138.761 381.81 130.687 378.754 124.3C376.334 119.242 362.232 99.701 360.567 99.0977C360.18 98.9571 359.365 99.3722 358.756 100.019ZM348.493 116.083C341.369 124.66 338.877 133.327 341.35 140.926L342.569 144.672L349.601 144.934L356.634 145.195L358.969 141.451C361.973 136.633 361.911 133.538 358.662 125.917C357.209 122.509 355.499 117.866 354.862 115.598C354.225 113.331 353.392 111.476 353.012 111.476C352.631 111.476 350.598 113.549 348.493 116.083ZM346.719 149.741C345.761 150.965 345.821 151.67 347.051 153.664C348.525 156.051 348.761 156.093 360.43 156.093C372.131 156.093 372.324 156.058 373.324 153.731C374.944 149.955 373.714 147.996 370.203 148.765C368.575 149.121 366.216 149.353 364.959 149.28C361.493 149.08 359.291 149.096 356.277 149.347C354.769 149.473 352.264 149.277 350.711 148.911C348.691 148.437 347.554 148.673 346.719 149.741ZM351.708 160.672C348.11 161.252 346.681 162.604 346.681 165.426C346.681 167.629 346.98 167.739 353.307 167.886C356.951 167.969 360.55 167.963 361.304 167.869C362.902 167.672 367.004 167.737 370.9 168.019C373.227 168.188 373.682 167.838 373.916 165.709C374.067 164.33 373.568 162.653 372.807 161.983C371.388 160.734 356.908 159.834 351.708 160.672ZM707.656 174.37C705.905 175.353 703.649 177.752 702.644 179.702L700.816 183.247L672.319 183.249L643.822 183.252L642.08 185.919C641.121 187.386 636.11 196.443 630.942 206.045C625.773 215.648 620.409 225.468 619.019 227.869C617.63 230.27 615.345 234.416 613.941 237.083C610.476 243.67 606.346 251.319 605.302 253.087C604.286 254.807 596.252 269.559 593.68 274.426C590.612 280.232 571.565 315.199 566.469 324.378C563.804 329.179 560.72 334.963 559.616 337.23C558.511 339.497 557.546 341.442 557.471 341.553C557.396 341.664 546.676 341.991 533.648 342.28C515.872 342.676 509.868 343.11 509.582 344.019C509.283 344.975 516.457 345.232 543.438 345.232C569.729 345.232 577.886 344.95 578.589 344.019C579.092 343.353 581.88 338.442 584.783 333.108C587.688 327.773 595.412 313.587 601.95 301.584C608.488 289.581 619.881 268.631 627.268 255.027C634.654 241.424 645.34 221.783 651.014 211.38C656.688 200.977 661.917 191.265 662.634 189.799L663.937 187.131H682.494H701.051L702.194 190.061C703.702 193.923 707.896 197.576 711.691 198.331C715.26 199.042 721.325 196.199 723.603 192.748C725.521 189.842 725.45 181.873 723.475 178.324C720.45 172.888 713.425 171.131 707.656 174.37ZM234.729 190.578C239.488 192.717 267.39 204.681 273.113 207.034C276.128 208.273 291.756 215.03 307.841 222.047C323.925 229.065 338.834 235.523 340.969 236.397C343.28 237.342 344.853 238.611 344.853 239.527C344.853 240.374 343.039 244.972 340.821 249.745C338.604 254.517 333.877 264.86 330.317 272.729C326.756 280.598 323.463 287.035 322.997 287.035C322.532 287.035 320.362 285.18 318.175 282.913C315.989 280.646 300.858 265.042 284.552 248.238C234.266 196.417 226.961 188.771 226.961 187.959C226.961 187.218 228.155 187.62 234.729 190.578ZM476.878 205.343C467.812 214.798 453.418 229.69 444.891 238.436C436.366 247.182 422.35 261.695 413.748 270.687C405.145 279.678 397.629 287.035 397.045 287.035C396.461 287.035 393.581 281.689 390.645 275.154C387.709 268.618 382.99 258.166 380.159 251.925C377.329 245.686 375.013 240.012 375.015 239.316C375.016 238.594 381.174 235.421 389.409 231.9C397.324 228.516 407.09 224.299 411.111 222.528C418.388 219.326 470.704 196.718 483.766 191.132C487.536 189.52 491.237 188.191 491.991 188.177C492.745 188.163 485.945 195.889 476.878 205.343ZM38.698 258.41C38.698 259.692 42.7411 259.877 70.6414 259.877H102.586L104.064 262.059C104.876 263.26 114.132 280.609 124.633 300.615C135.132 320.62 144.758 338.843 146.022 341.11L148.321 345.232H179.492C204.022 345.232 210.582 344.974 210.282 344.019C209.992 343.091 203.145 342.747 181.048 342.551L152.196 342.295L149.478 337.701C146.563 332.773 135.779 313.019 117.321 278.791L105.813 257.452L72.2554 257.198C42.8087 256.974 38.698 257.123 38.698 258.41ZM198.754 290.761C204.569 297.284 207.913 302.216 212.729 311.372C224.277 333.327 229.15 339.65 237.471 343.473C239.52 344.415 245.747 344.672 262.146 344.491C274.209 344.357 285.169 344.008 286.499 343.715L288.919 343.181L283.297 335.235C280.204 330.864 274.181 320.959 269.91 313.224C259.809 294.928 254.441 288.948 245.61 286.161C237.96 283.746 221.921 282.209 204.238 282.195L191.111 282.186L198.754 290.761ZM493.362 283.308C487.833 283.776 480.75 285.056 477.623 286.153C471.196 288.405 464.122 294.482 460.733 300.66C452.16 316.291 442.026 333.244 438.554 337.769C435.046 342.339 434.658 343.241 436.015 343.689C436.894 343.979 448.101 344.336 460.918 344.482C483.389 344.737 484.356 344.671 487.958 342.626C494.63 338.836 500.345 331.523 507.523 317.588C514.136 304.752 515.122 302.928 516.956 300.13C518.005 298.529 519.088 296.987 519.364 296.702C519.639 296.417 522.733 293.034 526.237 289.185L532.61 282.186L518.012 282.321C509.984 282.396 498.891 282.839 493.362 283.308ZM245.696 357.854C238.971 358.632 235.179 360.646 230.274 366.045C226.664 370.019 218.493 383.811 212.439 396.154C210.869 399.354 206.058 406.011 201.748 410.945L193.912 419.917L209.293 419.892C242.959 419.838 254.176 416.84 262.261 405.735C264.855 402.171 275.397 384.277 275.397 383.436C275.397 382.47 285.431 366.661 288.068 363.473C289.947 361.203 290.635 359.699 289.989 359.276C287.89 357.899 254.55 356.829 245.696 357.854ZM448.427 357.711C440.3 358.05 433.414 358.579 433.123 358.888C432.832 359.197 434.753 362.567 437.389 366.376C440.026 370.185 445.855 379.754 450.343 387.638C459.957 404.531 462.774 408.554 467.564 412.237C472.334 415.905 478.565 417.699 490.632 418.882C502.096 420.005 528.52 420.421 528.594 419.478C528.622 419.133 525.435 415.2 521.512 410.739C516.156 404.645 512.789 399.542 507.984 390.233C497.001 368.956 491.326 361.599 483.843 358.939C479.608 357.435 466.217 356.97 448.427 357.711ZM105.695 364.865C105.288 365.528 101.199 373.494 96.6089 382.567L88.2623 399.063L58.0991 399.319L27.9359 399.575L27.3849 397.245C27.0814 395.964 25.3761 393.557 23.5949 391.897C20.898 389.384 19.5948 388.879 15.8058 388.879C11.9208 388.879 10.7666 389.353 7.92799 392.114C5.01997 394.942 4.54841 396.039 4.17371 400.838C3.75515 406.189 3.83648 406.424 7.40525 410.212C10.7163 413.727 11.5096 414.098 15.7117 414.098C19.6067 414.098 20.8797 413.611 23.5949 411.08C25.3761 409.42 27.0805 407.019 27.3812 405.745C27.7641 404.126 28.6561 403.358 30.3431 403.196C31.671 403.068 61.0976 402.96 95.7352 402.954L158.712 402.943L160.236 400.033C161.649 397.337 164.741 391.26 172.819 375.3C174.574 371.832 176.413 368.46 176.905 367.805C177.536 366.964 182.523 366.537 193.851 366.35C205.699 366.154 210.002 365.768 210.283 364.873C210.838 363.104 106.781 363.096 105.695 364.865ZM510.497 364.873C510.795 365.823 525.65 366.19 579.04 366.57C616.528 366.837 647.397 367.274 647.636 367.54C647.875 367.807 650.645 372.39 653.792 377.725C656.938 383.059 661.315 390.371 663.517 393.971L667.522 400.518H685.715C698.076 400.518 704.108 400.173 704.535 399.44C705.855 397.173 702.095 396.642 685.39 396.734C674.979 396.791 667.91 396.45 667.569 395.875C667.257 395.352 662.684 387.89 657.406 379.293L647.81 363.666L578.964 363.663C524.292 363.661 510.195 363.91 510.497 364.873ZM303.287 377.223C298.807 382 295.326 386.097 295.551 386.327C296.59 387.392 333.208 404.473 333.586 404.07C333.941 403.694 314.075 371.574 312.053 369.252C311.711 368.86 307.767 372.447 303.287 377.223ZM398.707 384.535C388.73 400.297 386.786 403.639 387.287 404.169C387.453 404.346 393.91 401.463 401.635 397.763C409.36 394.063 417.839 390.061 420.478 388.868C423.118 387.675 425.276 386.395 425.276 386.022C425.276 385.002 410.097 369.48 409.1 369.48C408.624 369.48 403.947 376.255 398.707 384.535Z" fill="#FE0000"/>
<path fill-rule="evenodd" clip-rule="evenodd" d="M540.711 9.15899C538.795 12.0998 534.967 17.9321 532.202 22.1203C529.438 26.3095 522.987 36.2339 517.868 44.1748C511.454 54.1235 507.759 58.9654 505.987 59.7424C504.572 60.3622 493.544 64.8675 481.481 69.7541C455.689 80.2004 437.683 87.5321 430.957 90.3246C425.709 92.5031 424.724 93.7921 423.514 100.066C423.076 102.34 421.974 107.786 421.068 112.168C420.161 116.549 419.689 120.418 420.017 120.767C420.346 121.115 427.729 119.111 436.425 116.314C445.122 113.517 454.704 110.473 457.72 109.551C472.656 104.982 491.726 98.9483 493.279 98.2994C494.931 97.6098 494.991 97.9454 494.406 104.616C493.783 111.732 492.652 115.356 491.054 115.356C490.574 115.356 484.728 117.494 478.063 120.107C471.398 122.72 455.458 128.853 442.64 133.735C429.823 138.618 418.433 143.007 417.329 143.489C415.349 144.353 415.097 145.165 413.962 154.378C413.247 160.18 409.933 160.931 449.038 146.419C459.342 142.595 469.623 138.821 471.885 138.031C474.147 137.243 476.82 136.218 477.825 135.756C480.326 134.605 485.694 132.815 486.644 132.815C487.69 132.815 487.637 142.757 486.574 145.723C485.849 147.749 480.197 150.426 447.048 164.444L408.369 180.801L398.773 190.477C393.496 195.799 383.139 206.39 375.76 214.011C368.379 221.633 361.799 227.856 361.137 227.841C359.809 227.811 357.295 225.368 330.803 198.368C320.813 188.187 311.355 179.336 309.784 178.699C297.302 173.639 255.834 156.652 242.195 151.013C234.372 147.777 233.876 147.125 232.82 138.672C232.437 135.61 232.552 133.785 233.129 133.785C233.635 133.785 239.959 136.008 247.183 138.726C254.407 141.443 261.346 144.02 262.603 144.454C263.859 144.888 270.851 147.512 278.139 150.288C298.779 158.148 305.447 160.412 306.055 159.767C306.363 159.44 306.091 155.863 305.452 151.817L304.286 144.463L290.528 138.715C282.96 135.554 266.898 128.95 254.835 124.038C242.771 119.126 231.85 114.541 230.565 113.849C228.829 112.914 227.675 110.83 226.07 105.73C224.883 101.957 224.16 98.6059 224.464 98.2839C224.767 97.9609 227.612 98.5865 230.786 99.6729C233.96 100.759 243.342 103.893 251.636 106.637C259.93 109.382 268.977 112.426 271.742 113.401C285.058 118.103 299.217 122.406 299.696 121.898C299.989 121.587 299.76 117.478 299.186 112.767C298.612 108.056 297.903 101.695 297.61 98.6321C297.318 95.5691 296.621 92.6631 296.062 92.1762C295.503 91.6893 290.317 89.5428 284.536 87.408C270.49 82.2188 245.979 73.017 229.702 66.8229C222.414 64.0489 215.55 61.5668 214.45 61.3069C211.693 60.657 211.248 60.0489 198.297 39.2155C181.885 12.8137 176.569 4.59444 176.176 5.01152C175.986 5.21327 177.03 14.0824 178.496 24.7217C181.617 47.3747 186.456 82.3022 187.626 90.6224C188.076 93.8232 189.738 105.826 191.319 117.296C192.9 128.765 194.545 140.55 194.974 143.484C196.116 151.281 199.557 175.942 200.522 183.252C200.98 186.719 201.773 192.393 202.285 195.861C202.795 199.328 203.62 205.221 204.116 208.955C204.612 212.689 205.333 217.922 205.718 220.584L206.418 225.423L226.255 241.922C237.165 250.997 247.199 259.295 248.551 260.362C249.903 261.429 257.533 267.783 265.507 274.482L280.005 286.664L295.538 309.885C304.082 322.657 314.171 337.69 317.96 343.292C321.749 348.893 330.8 362.424 338.075 373.36C358.978 404.785 359.5 405.521 360.597 405.133C361.596 404.779 372.739 388.686 392.671 358.811C411.849 330.064 437.5 292.296 439.354 290.073C440.408 288.81 444.56 285.109 448.581 281.848C452.602 278.588 456.509 275.377 457.263 274.713C458.017 274.049 466.036 267.329 475.084 259.78C512.427 228.621 511.183 229.754 511.183 226.916C511.183 225.465 511.548 223.013 511.996 221.466C512.443 219.92 513.308 214.944 513.918 210.41C514.528 205.876 516.175 194.745 517.579 185.677C518.982 176.608 521.016 163.077 522.098 155.608C523.181 148.14 525.296 133.954 526.798 124.085C530.733 98.2248 532.806 84.5321 534.915 70.4961C535.936 63.6949 537.579 52.783 538.565 46.2476C539.551 39.7121 541.214 28.4734 542.262 21.2716C543.31 14.0698 544.362 7.19583 544.599 5.99505C545.251 2.70889 544.53 3.29472 540.711 9.15899ZM299.188 7.04064C299.159 8.80788 301.631 24.4879 304.261 39.2155C305.023 43.4832 306.651 53.0857 307.877 60.5542C309.105 68.0227 310.747 77.8434 311.528 82.3779C312.861 90.1209 313.484 93.8329 317.019 115.113C317.794 119.782 319.207 128.183 320.158 133.785C321.109 139.386 322.551 147.892 323.361 152.689L324.834 161.409L332.33 169.663C336.454 174.202 344.422 182.664 350.039 188.466L360.251 199.016L364.204 195.165C366.378 193.046 372.849 186.772 378.583 181.221C394.087 166.209 395.721 164.497 396.34 162.615C396.651 161.669 397.976 154.467 399.282 146.611C402.701 126.06 405.89 107.248 407.376 98.8669C409.057 89.3905 411.253 76.6872 413.454 63.7065C414.428 57.9722 416.062 48.3698 417.086 42.3678C423.012 7.64298 423.234 6.25305 422.934 5.89321C422.652 5.5547 407.183 27.4928 389.177 53.7685C384.151 61.1032 379.495 67.7036 378.831 68.4369C377.173 70.2643 346.816 70.371 344.709 68.5562C343.476 67.4941 324.68 41.3998 319.721 33.8673C318.194 31.5462 304.047 11.7759 300.33 6.76809C299.345 5.44024 299.213 5.47225 299.188 7.04064ZM364.5 96.1995C366.246 98.9997 370.376 104.783 373.678 109.051C383.227 121.396 387.075 132.129 385.118 140.968C384.656 143.052 382.354 147.746 380.001 151.401L375.723 158.046L377.315 161.606C379.214 165.853 378.469 169.032 374.919 171.837C372.794 173.516 372.137 173.588 368.738 172.507C365.644 171.523 364.512 171.539 362.663 172.589C360.806 173.643 359.989 173.653 358.207 172.641C356.739 171.806 354.522 171.62 351.433 172.071C348.621 172.481 346.116 172.33 344.972 171.68C342.388 170.212 341.574 164.86 343.374 161.166C344.755 158.332 344.685 158.019 341.053 150.7C336.518 141.566 335.523 133.917 337.892 126.401C339.529 121.206 347.465 109.337 350.897 106.95C352.102 106.113 353.488 103.765 354.023 101.658C354.824 98.4973 359.679 91.1073 360.953 91.1073C361.158 91.1073 362.755 93.3993 364.5 96.1995ZM358.756 100.019C357.253 101.614 357.356 110.352 358.932 115.094C359.639 117.218 361.284 121.433 362.588 124.46C365.13 130.359 365.752 138.161 363.96 141.712C362.423 144.761 364.069 145.753 368.54 144.475C371.657 143.585 372.872 143.661 375.194 144.89C378.765 146.781 378.379 146.89 380.015 143.533C382.34 138.761 381.81 130.687 378.754 124.3C376.334 119.242 362.232 99.701 360.567 99.0977C360.18 98.9571 359.365 99.3722 358.756 100.019ZM348.493 116.083C341.369 124.66 338.877 133.327 341.35 140.926L342.569 144.672L349.601 144.934L356.634 145.195L358.969 141.451C361.973 136.633 361.911 133.538 358.662 125.917C357.209 122.509 355.499 117.866 354.862 115.598C354.225 113.331 353.392 111.476 353.012 111.476C352.631 111.476 350.598 113.549 348.493 116.083ZM346.719 149.741C345.761 150.965 345.821 151.67 347.051 153.664C348.525 156.051 348.761 156.093 360.43 156.093C372.131 156.093 372.324 156.058 373.324 153.731C374.944 149.955 373.714 147.996 370.203 148.765C368.575 149.121 366.216 149.353 364.959 149.28C361.493 149.08 359.291 149.096 356.277 149.347C354.769 149.473 352.264 149.277 350.711 148.911C348.691 148.437 347.554 148.673 346.719 149.741ZM351.708 160.672C348.11 161.252 346.681 162.604 346.681 165.426C346.681 167.629 346.98 167.739 353.307 167.886C356.951 167.969 360.55 167.963 361.304 167.869C362.902 167.672 367.004 167.737 370.9 168.019C373.227 168.188 373.682 167.838 373.916 165.709C374.067 164.33 373.568 162.653 372.807 161.983C371.388 160.734 356.908 159.834 351.708 160.672ZM707.656 174.37C705.905 175.353 703.649 177.752 702.644 179.702L700.816 183.247L672.319 183.249L643.822 183.252L642.08 185.919C641.121 187.386 636.11 196.443 630.942 206.045C625.773 215.648 620.409 225.468 619.019 227.869C617.63 230.27 615.345 234.416 613.941 237.083C610.476 243.67 606.346 251.319 605.302 253.087C604.286 254.807 596.252 269.559 593.68 274.426C590.612 280.232 571.565 315.199 566.469 324.378C563.804 329.179 560.72 334.963 559.616 337.23C558.511 339.497 557.546 341.442 557.471 341.553C557.396 341.664 546.676 341.991 533.648 342.28C515.872 342.676 509.868 343.11 509.582 344.019C509.283 344.975 516.457 345.232 543.438 345.232C569.729 345.232 577.886 344.95 578.589 344.019C579.092 343.353 581.88 338.442 584.783 333.108C587.688 327.773 595.412 313.587 601.95 301.584C608.488 289.581 619.881 268.631 627.268 255.027C634.654 241.424 645.34 221.783 651.014 211.38C656.688 200.977 661.917 191.265 662.634 189.799L663.937 187.131H682.494H701.051L702.194 190.061C703.702 193.923 707.896 197.576 711.691 198.331C715.26 199.042 721.325 196.199 723.603 192.748C725.521 189.842 725.45 181.873 723.475 178.324C720.45 172.888 713.425 171.131 707.656 174.37ZM234.729 190.578C239.488 192.717 267.39 204.681 273.113 207.034C276.128 208.273 291.756 215.03 307.841 222.047C323.925 229.065 338.834 235.523 340.969 236.397C343.28 237.342 344.853 238.611 344.853 239.527C344.853 240.374 343.039 244.972 340.821 249.745C338.604 254.517 333.877 264.86 330.317 272.729C326.756 280.598 323.463 287.035 322.997 287.035C322.532 287.035 320.362 285.18 318.175 282.913C315.989 280.646 300.858 265.042 284.552 248.238C234.266 196.417 226.961 188.771 226.961 187.959C226.961 187.218 228.155 187.62 234.729 190.578ZM476.878 205.343C467.812 214.798 453.418 229.69 444.891 238.436C436.366 247.182 422.35 261.695 413.748 270.687C405.145 279.678 397.629 287.035 397.045 287.035C396.461 287.035 393.581 281.689 390.645 275.154C387.709 268.618 382.99 258.166 380.159 251.925C377.329 245.686 375.013 240.012 375.015 239.316C375.016 238.594 381.174 235.421 389.409 231.9C397.324 228.516 407.09 224.299 411.111 222.528C418.388 219.326 470.704 196.718 483.766 191.132C487.536 189.52 491.237 188.191 491.991 188.177C492.745 188.163 485.945 195.889 476.878 205.343ZM38.698 258.41C38.698 259.692 42.7411 259.877 70.6414 259.877H102.586L104.064 262.059C104.876 263.26 114.132 280.609 124.633 300.615C135.132 320.62 144.758 338.843 146.022 341.11L148.321 345.232H179.492C204.022 345.232 210.582 344.974 210.282 344.019C209.992 343.091 203.145 342.747 181.048 342.551L152.196 342.295L149.478 337.701C146.563 332.773 135.779 313.019 117.321 278.791L105.813 257.452L72.2554 257.198C42.8087 256.974 38.698 257.123 38.698 258.41ZM198.754 290.761C204.569 297.284 207.913 302.216 212.729 311.372C224.277 333.327 229.15 339.65 237.471 343.473C239.52 344.415 245.747 344.672 262.146 344.491C274.209 344.357 285.169 344.008 286.499 343.715L288.919 343.181L283.297 335.235C280.204 330.864 274.181 320.959 269.91 313.224C259.809 294.928 254.441 288.948 245.61 286.161C237.96 283.746 221.921 282.209 204.238 282.195L191.111 282.186L198.754 290.761ZM493.362 283.308C487.833 283.776 480.75 285.056 477.623 286.153C471.196 288.405 464.122 294.482 460.733 300.66C452.16 316.291 442.026 333.244 438.554 337.769C435.046 342.339 434.658 343.241 436.015 343.689C436.894 343.979 448.101 344.336 460.918 344.482C483.389 344.737 484.356 344.671 487.958 342.626C494.63 338.836 500.345 331.523 507.523 317.588C514.136 304.752 515.122 302.928 516.956 300.13C518.005 298.529 519.088 296.987 519.364 296.702C519.639 296.417 522.733 293.034 526.237 289.185L532.61 282.186L518.012 282.321C509.984 282.396 498.891 282.839 493.362 283.308ZM245.696 357.854C238.971 358.632 235.179 360.646 230.274 366.045C226.664 370.019 218.493 383.811 212.439 396.154C210.869 399.354 206.058 406.011 201.748 410.945L193.912 419.917L209.293 419.892C242.959 419.838 254.176 416.84 262.261 405.735C264.855 402.171 275.397 384.277 275.397 383.436C275.397 382.47 285.431 366.661 288.068 363.473C289.947 361.203 290.635 359.699 289.989 359.276C287.89 357.899 254.55 356.829 245.696 357.854ZM448.427 357.711C440.3 358.05 433.414 358.579 433.123 358.888C432.832 359.197 434.753 362.567 437.389 366.376C440.026 370.185 445.855 379.754 450.343 387.638C459.957 404.531 462.774 408.554 467.564 412.237C472.334 415.905 478.565 417.699 490.632 418.882C502.096 420.005 528.52 420.421 528.594 419.478C528.622 419.133 525.435 415.2 521.512 410.739C516.156 404.645 512.789 399.542 507.984 390.233C497.001 368.956 491.326 361.599 483.843 358.939C479.608 357.435 466.217 356.97 448.427 357.711ZM105.695 364.865C105.288 365.528 101.199 373.494 96.6089 382.567L88.2623 399.063L58.0991 399.319L27.9359 399.575L27.3849 397.245C27.0814 395.964 25.3761 393.557 23.5949 391.897C20.898 389.384 19.5948 388.879 15.8058 388.879C11.9208 388.879 10.7666 389.353 7.92799 392.114C5.01997 394.942 4.54841 396.039 4.17371 400.838C3.75515 406.189 3.83648 406.424 7.40525 410.212C10.7163 413.727 11.5096 414.098 15.7117 414.098C19.6067 414.098 20.8797 413.611 23.5949 411.08C25.3761 409.42 27.0805 407.019 27.3812 405.745C27.7641 404.126 28.6561 403.358 30.3431 403.196C31.671 403.068 61.0976 402.96 95.7352 402.954L158.712 402.943L160.236 400.033C161.649 397.337 164.741 391.26 172.819 375.3C174.574 371.832 176.413 368.46 176.905 367.805C177.536 366.964 182.523 366.537 193.851 366.35C205.699 366.154 210.002 365.768 210.283 364.873C210.838 363.104 106.781 363.096 105.695 364.865ZM510.497 364.873C510.795 365.823 525.65 366.19 579.04 366.57C616.528 366.837 647.397 367.274 647.636 367.54C647.875 367.807 650.645 372.39 653.792 377.725C656.938 383.059 661.315 390.371 663.517 393.971L667.522 400.518H685.715C698.076 400.518 704.108 400.173 704.535 399.44C705.855 397.173 702.095 396.642 685.39 396.734C674.979 396.791 667.91 396.45 667.569 395.875C667.257 395.352 662.684 387.89 657.406 379.293L647.81 363.666L578.964 363.663C524.292 363.661 510.195 363.91 510.497 364.873ZM303.287 377.223C298.807 382 295.326 386.097 295.551 386.327C296.59 387.392 333.208 404.473 333.586 404.07C333.941 403.694 314.075 371.574 312.053 369.252C311.711 368.86 307.767 372.447 303.287 377.223ZM398.707 384.535C388.73 400.297 386.786 403.639 387.287 404.169C387.453 404.346 393.91 401.463 401.635 397.763C409.36 394.063 417.839 390.061 420.478 388.868C423.118 387.675 425.276 386.395 425.276 386.022C425.276 385.002 410.097 369.48 409.1 369.48C408.624 369.48 403.947 376.255 398.707 384.535Z" stroke="#FCF81C" stroke-width="7" mask="url(#path-1-outside-1_139_1114)"/>
</svg>
